<mxfile host="app.diagrams.net" modified="2024-01-30T18:53:31.217Z" agent="Mozilla/5.0 (Macintosh; Intel Mac OS X 10_15_7) AppleWebKit/605.1.15 (KHTML, like Gecko) Version/17.3 Safari/605.1.15" etag="4li0uvojuIS6HnZu0h_4" version="23.0.2" type="google">
  <diagram name="Page-1" id="J0EiKQurKuyt2-Qeqvim">
    <mxGraphModel grid="1" page="1" gridSize="10" guides="1" tooltips="1" connect="1" arrows="1" fold="1" pageScale="1" pageWidth="850" pageHeight="1100" math="0" shadow="0">
      <root>
        <mxCell id="0" />
        <mxCell id="1" parent="0" />
        <mxCell id="M4gZnwomvPgDCCZwHpb_-1" value="condo management company&amp;nbsp;" style="shape=umlActor;verticalLabelPosition=bottom;verticalAlign=top;html=1;outlineConnect=0;" vertex="1" parent="1">
          <mxGeometry x="100" y="220" width="30" height="60" as="geometry" />
        </mxCell>
        <mxCell id="M4gZnwomvPgDCCZwHpb_-2" value="condo owner" style="shape=umlActor;verticalLabelPosition=bottom;verticalAlign=top;html=1;outlineConnect=0;" vertex="1" parent="1">
          <mxGeometry x="100" y="420" width="30" height="60" as="geometry" />
        </mxCell>
        <mxCell id="M4gZnwomvPgDCCZwHpb_-4" value="" style="rounded=0;whiteSpace=wrap;html=1;" vertex="1" parent="1">
          <mxGeometry x="315" y="140" width="190" height="520" as="geometry" />
        </mxCell>
        <mxCell id="M4gZnwomvPgDCCZwHpb_-5" value="assigns roles" style="ellipse;whiteSpace=wrap;html=1;" vertex="1" parent="1">
          <mxGeometry x="350" y="180" width="120" height="80" as="geometry" />
        </mxCell>
        <mxCell id="M4gZnwomvPgDCCZwHpb_-6" value="" style="endArrow=classic;html=1;rounded=0;exitX=0.5;exitY=0.5;exitDx=0;exitDy=0;exitPerimeter=0;entryX=0;entryY=0.5;entryDx=0;entryDy=0;" edge="1" parent="1" source="M4gZnwomvPgDCCZwHpb_-1" target="M4gZnwomvPgDCCZwHpb_-5">
          <mxGeometry width="50" height="50" relative="1" as="geometry">
            <mxPoint x="120" y="270" as="sourcePoint" />
            <mxPoint x="170" y="220" as="targetPoint" />
          </mxGeometry>
        </mxCell>
        <mxCell id="M4gZnwomvPgDCCZwHpb_-9" value="make a request" style="ellipse;whiteSpace=wrap;html=1;" vertex="1" parent="1">
          <mxGeometry x="350" y="360" width="120" height="80" as="geometry" />
        </mxCell>
        <mxCell id="M4gZnwomvPgDCCZwHpb_-10" value="" style="endArrow=classic;html=1;rounded=0;entryX=0;entryY=0.5;entryDx=0;entryDy=0;exitX=0.5;exitY=0.5;exitDx=0;exitDy=0;exitPerimeter=0;" edge="1" parent="1" source="M4gZnwomvPgDCCZwHpb_-2" target="M4gZnwomvPgDCCZwHpb_-9">
          <mxGeometry width="50" height="50" relative="1" as="geometry">
            <mxPoint x="120" y="340" as="sourcePoint" />
            <mxPoint x="360" y="310" as="targetPoint" />
          </mxGeometry>
        </mxCell>
        <mxCell id="M4gZnwomvPgDCCZwHpb_-11" value="handle requests" style="ellipse;whiteSpace=wrap;html=1;" vertex="1" parent="1">
          <mxGeometry x="350" y="560" width="120" height="80" as="geometry" />
        </mxCell>
        <mxCell id="M4gZnwomvPgDCCZwHpb_-17" value="requests and roles" style="text;html=1;strokeColor=none;fillColor=none;align=center;verticalAlign=middle;whiteSpace=wrap;rounded=0;" vertex="1" parent="1">
          <mxGeometry x="330" y="140" width="160" height="30" as="geometry" />
        </mxCell>
        <mxCell id="M4gZnwomvPgDCCZwHpb_-18" value="employee" style="shape=umlActor;verticalLabelPosition=bottom;verticalAlign=top;html=1;outlineConnect=0;" vertex="1" parent="1">
          <mxGeometry x="100" y="570" width="30" height="60" as="geometry" />
        </mxCell>
        <mxCell id="M4gZnwomvPgDCCZwHpb_-22" style="edgeStyle=orthogonalEdgeStyle;rounded=0;orthogonalLoop=1;jettySize=auto;html=1;exitX=0.5;exitY=1;exitDx=0;exitDy=0;" edge="1" parent="1" source="M4gZnwomvPgDCCZwHpb_-4" target="M4gZnwomvPgDCCZwHpb_-4">
          <mxGeometry relative="1" as="geometry" />
        </mxCell>
        <mxCell id="M4gZnwomvPgDCCZwHpb_-27" value="" style="endArrow=classic;html=1;rounded=0;entryX=0;entryY=0.5;entryDx=0;entryDy=0;exitX=0.5;exitY=0.5;exitDx=0;exitDy=0;exitPerimeter=0;" edge="1" parent="1" source="M4gZnwomvPgDCCZwHpb_-18" target="M4gZnwomvPgDCCZwHpb_-11">
          <mxGeometry width="50" height="50" relative="1" as="geometry">
            <mxPoint x="125" y="350" as="sourcePoint" />
            <mxPoint x="360" y="350" as="targetPoint" />
          </mxGeometry>
        </mxCell>
        <mxCell id="M4gZnwomvPgDCCZwHpb_-28" value="assigns request" style="ellipse;whiteSpace=wrap;html=1;" vertex="1" parent="1">
          <mxGeometry x="350" y="270" width="120" height="80" as="geometry" />
        </mxCell>
        <mxCell id="M4gZnwomvPgDCCZwHpb_-29" value="" style="endArrow=classic;html=1;rounded=0;exitX=0.5;exitY=0.5;exitDx=0;exitDy=0;exitPerimeter=0;entryX=0;entryY=0.5;entryDx=0;entryDy=0;" edge="1" parent="1" source="M4gZnwomvPgDCCZwHpb_-1" target="M4gZnwomvPgDCCZwHpb_-28">
          <mxGeometry width="50" height="50" relative="1" as="geometry">
            <mxPoint x="125" y="250" as="sourcePoint" />
            <mxPoint x="360" y="230" as="targetPoint" />
          </mxGeometry>
        </mxCell>
        <mxCell id="M4gZnwomvPgDCCZwHpb_-30" value="access notification page" style="ellipse;whiteSpace=wrap;html=1;" vertex="1" parent="1">
          <mxGeometry x="350" y="460" width="120" height="80" as="geometry" />
        </mxCell>
        <mxCell id="M4gZnwomvPgDCCZwHpb_-31" value="" style="endArrow=classic;html=1;rounded=0;exitX=0.5;exitY=0.5;exitDx=0;exitDy=0;exitPerimeter=0;entryX=0;entryY=0.5;entryDx=0;entryDy=0;" edge="1" parent="1" source="M4gZnwomvPgDCCZwHpb_-2" target="M4gZnwomvPgDCCZwHpb_-30">
          <mxGeometry width="50" height="50" relative="1" as="geometry">
            <mxPoint x="230" y="620" as="sourcePoint" />
            <mxPoint x="280" y="570" as="targetPoint" />
          </mxGeometry>
        </mxCell>
        <mxCell id="qwcHxsDNPuaPC10BeRkn-1" value="&lt;p style=&quot;margin: 0cm; font-size: medium; font-family: &amp;quot;Times New Roman&amp;quot;, serif; text-align: start;&quot; class=&quot;MsoNormal&quot;&gt;&lt;b&gt;Scenario:&lt;/b&gt;&lt;/p&gt;&lt;p style=&quot;margin: 0cm; font-size: medium; font-family: &amp;quot;Times New Roman&amp;quot;, serif; text-align: start;&quot; class=&quot;MsoNormal&quot;&gt;1. The Condo Management Company configures the system to set up various roles for its employees, such as manager, operations, and finance roles, each with specific responsibilities.&lt;/p&gt;&lt;p style=&quot;margin: 0cm; font-size: medium; font-family: &amp;quot;Times New Roman&amp;quot;, serif; text-align: start;&quot; class=&quot;MsoNormal&quot;&gt;2. &amp;nbsp;Condo Owners submits requests through the system, which can range from moving in/out to reporting a deficiency in common areas.&lt;/p&gt;&lt;p style=&quot;margin: 0cm; font-size: medium; font-family: &amp;quot;Times New Roman&amp;quot;, serif; text-align: start;&quot; class=&quot;MsoNormal&quot;&gt;3. &amp;nbsp;The system automatically assigns these requests to the appropriate employee based on the nature of the request.&lt;/p&gt;&lt;p style=&quot;margin: 0cm; font-size: medium; font-family: &amp;quot;Times New Roman&amp;quot;, serif; text-align: start;&quot; class=&quot;MsoNormal&quot;&gt;4. &amp;nbsp;The assigned Manager, Operations Employee, or Finance Employee then addresses the request, taking necessary actions or providing the required information.&lt;/p&gt;&lt;p style=&quot;margin: 0cm; font-size: medium; font-family: &amp;quot;Times New Roman&amp;quot;, serif; text-align: start;&quot; class=&quot;MsoNormal&quot;&gt;5. &amp;nbsp;Both the Condo Owners and the relevant employees can track the progress and status of these requests through the system.&lt;/p&gt;&lt;p style=&quot;margin: 0cm; font-size: medium; font-family: &amp;quot;Times New Roman&amp;quot;, serif; text-align: start;&quot; class=&quot;MsoNormal&quot;&gt;6. &amp;nbsp;The System Administrator oversees the system&#39;s functionality, ensuring that the role management and request handling processes operate smoothly.&lt;/p&gt;" style="shape=note;whiteSpace=wrap;html=1;backgroundOutline=1;darkOpacity=0.05;size=24;" vertex="1" parent="1">
          <mxGeometry x="70" y="730" width="700" height="280" as="geometry" />
        </mxCell>
      </root>
    </mxGraphModel>
  </diagram>
</mxfile>
